<svg width="145" height="38" viewBox="0 0 145 38" fill="none" xmlns="http://www.w3.org/2000/svg">
<path d="M35.7678 30.45V4.3391H46.1215C47.8864 4.3391 49.331 4.69571 50.4552 5.40892C51.5915 6.11005 52.4316 7.01063 52.9756 8.11068C53.5317 9.21072 53.8097 10.347 53.8097 11.5196C53.8097 12.9581 53.4652 14.179 52.7762 15.1824C52.0992 16.1857 51.1745 16.8627 50.0019 17.2132V16.3066C51.6459 16.6813 52.891 17.461 53.7372 18.6457C54.5955 19.8304 55.0246 21.1782 55.0246 22.6893C55.0246 24.2366 54.7284 25.5905 54.1361 26.751C53.5438 27.9115 52.6613 28.8181 51.4888 29.4709C50.3283 30.1236 48.8898 30.45 47.1732 30.45H35.7678ZM40.1922 26.3339H46.6292C47.3908 26.3339 48.0738 26.1828 48.6782 25.8806C49.2826 25.5663 49.7541 25.1311 50.0925 24.5751C50.4431 24.0069 50.6184 23.336 50.6184 22.5623C50.6184 21.8612 50.4673 21.2326 50.1651 20.6766C49.8629 20.1205 49.4216 19.6793 48.8414 19.3529C48.2612 19.0144 47.5661 18.8452 46.7562 18.8452H40.1922V26.3339ZM40.1922 14.7653H46.0671C46.6957 14.7653 47.2578 14.6444 47.7534 14.4027C48.2491 14.1609 48.6419 13.8043 48.9321 13.3329C49.2222 12.8614 49.3672 12.2812 49.3672 11.5921C49.3672 10.6855 49.0771 9.92998 48.4969 9.32556C47.9166 8.72114 47.1067 8.41893 46.0671 8.41893H40.1922V14.7653ZM67.2953 30.994C65.3369 30.994 63.6264 30.5528 62.1637 29.6703C60.701 28.7879 59.5647 27.573 58.7548 26.0257C57.957 24.4663 57.5581 22.6772 57.5581 20.6584C57.5581 18.6034 57.9691 16.8022 58.7911 15.2549C59.6131 13.7076 60.7554 12.4988 62.2181 11.6284C63.6808 10.758 65.3732 10.3229 67.2953 10.3229C69.2657 10.3229 70.9822 10.7641 72.4449 11.6465C73.9076 12.529 75.0439 13.7499 75.8538 15.3093C76.6638 16.8566 77.0687 18.6397 77.0687 20.6584C77.0687 22.6893 76.6577 24.4844 75.8357 26.0438C75.0258 27.5911 73.8895 28.806 72.4268 29.6884C70.9641 30.5588 69.2536 30.994 67.2953 30.994ZM67.2953 26.896C69.036 26.896 70.3294 26.3158 71.1756 25.1553C72.0218 23.9948 72.4449 22.4959 72.4449 20.6584C72.4449 18.7605 72.0158 17.2495 71.1575 16.1253C70.2992 14.989 69.0118 14.4208 67.2953 14.4208C66.1227 14.4208 65.1556 14.6868 64.394 15.2186C63.6446 15.7384 63.0885 16.4698 62.7259 17.4127C62.3632 18.3435 62.1819 19.4254 62.1819 20.6584C62.1819 22.5563 62.611 24.0734 63.4693 25.2097C64.3396 26.3339 65.615 26.896 67.2953 26.896ZM81.4265 30.45V3.79512H85.7964V30.45H81.4265ZM99.0794 30.994C97.2782 30.994 95.7067 30.5407 94.3649 29.634C93.0231 28.7274 91.9835 27.4944 91.2461 25.935C90.5087 24.3756 90.14 22.6167 90.14 20.6584C90.14 18.6759 90.5087 16.911 91.2461 15.3637C91.9956 13.8043 93.0533 12.5773 94.4193 11.6828C95.7853 10.7762 97.3931 10.3229 99.2426 10.3229C101.104 10.3229 102.664 10.7762 103.921 11.6828C105.19 12.5773 106.151 13.8043 106.804 15.3637C107.457 16.9231 107.783 18.688 107.783 20.6584C107.783 22.6047 107.457 24.3635 106.804 25.935C106.151 27.4944 105.178 28.7274 103.885 29.634C102.591 30.5407 100.989 30.994 99.0794 30.994ZM99.7503 27.0774C100.923 27.0774 101.866 26.8114 102.579 26.2795C103.304 25.7355 103.83 24.98 104.157 24.0129C104.495 23.0459 104.664 21.9277 104.664 20.6584C104.664 19.3771 104.495 18.2589 104.157 17.3039C103.83 16.3368 103.316 15.5873 102.615 15.0555C101.914 14.5115 101.007 14.2395 99.8954 14.2395C98.7228 14.2395 97.7557 14.5296 96.9942 15.1099C96.2326 15.678 95.6705 16.4517 95.3078 17.4308C94.9452 18.3979 94.7638 19.4738 94.7638 20.6584C94.7638 21.8552 94.9391 22.9431 95.2897 23.9223C95.6523 24.8894 96.2024 25.657 96.9398 26.2251C97.6771 26.7933 98.614 27.0774 99.7503 27.0774ZM104.664 30.45V16.7055H104.12V4.3391H108.526V30.45H104.664ZM122.26 30.994C120.301 30.994 118.591 30.5528 117.128 29.6703C115.665 28.7879 114.529 27.573 113.719 26.0257C112.921 24.4663 112.522 22.6772 112.522 20.6584C112.522 18.6034 112.933 16.8022 113.755 15.2549C114.577 13.7076 115.72 12.4988 117.183 11.6284C118.645 10.758 120.338 10.3229 122.26 10.3229C124.23 10.3229 125.947 10.7641 127.409 11.6465C128.872 12.529 130.008 13.7499 130.818 15.3093C131.628 16.8566 132.033 18.6397 132.033 20.6584C132.033 22.6893 131.622 24.4844 130.8 26.0438C129.99 27.5911 128.854 28.806 127.391 29.6884C125.928 30.5588 124.218 30.994 122.26 30.994ZM122.26 26.896C124 26.896 125.294 26.3158 126.14 25.1553C126.986 23.9948 127.409 22.4959 127.409 20.6584C127.409 18.7605 126.98 17.2495 126.122 16.1253C125.264 14.989 123.976 14.4208 122.26 14.4208C121.087 14.4208 120.12 14.6868 119.358 15.2186C118.609 15.7384 118.053 16.4698 117.69 17.4127C117.328 18.3435 117.146 19.4254 117.146 20.6584C117.146 22.5563 117.575 24.0734 118.434 25.2097C119.304 26.3339 120.579 26.896 122.26 26.896Z" fill="#0A2640"/>
<path d="M0 16.45H14.3176C19.201 16.45 23.1597 20.4088 23.1597 25.2921V25.2921C23.1597 30.1755 19.201 34.1343 14.3176 34.1343H0V16.45Z" fill="#0A2640"/>
<path d="M0 0.976379H9.47953C13.1421 0.976379 16.1111 3.94544 16.1111 7.60796V7.60796C16.1111 11.2705 13.1421 14.2395 9.47953 14.2395H0V0.976379Z" fill="#0A2640"/>
</svg>
