<svg width="147" height="38" viewBox="0 0 147 38" fill="none" xmlns="http://www.w3.org/2000/svg">
<g clip-path="url(#clip0_604_1548)">
<g clip-path="url(#clip1_604_1548)">
<path d="M9.54218 2.61595C9.50479 2.54381 9.48198 2.465 9.47505 2.38404C9.46813 2.30308 9.47722 2.22155 9.50181 2.1441C9.5264 2.06665 9.56602 1.99481 9.61838 1.93267C9.67075 1.87054 9.73484 1.81933 9.807 1.78197C12.0213 0.655987 14.4809 0.0987544 16.9643 0.160511C19.4476 0.222268 21.8765 0.901073 24.0321 2.13573C24.1028 2.17639 24.1647 2.23065 24.2143 2.29537C24.264 2.36009 24.3003 2.434 24.3212 2.51284C24.3422 2.59167 24.3473 2.67386 24.3363 2.75468C24.3253 2.8355 24.2984 2.91334 24.2571 2.9837L17.136 15.205C17.0817 15.2986 17.0037 15.3762 16.9099 15.4301C16.816 15.4841 16.7097 15.5124 16.6014 15.5122H16.5857C16.4749 15.5092 16.3668 15.4767 16.2728 15.4178C16.1788 15.359 16.1023 15.2761 16.0511 15.1778L9.54218 2.61595ZM16.2194 18.7715V18.7703L9.71027 6.20851C9.63467 6.06308 9.50461 5.95346 9.34847 5.90359C9.19234 5.85372 9.02281 5.86764 8.87691 5.94232C7.14214 6.83183 5.60011 8.05517 4.33934 9.54214C3.07856 11.0291 2.12386 12.7504 1.53002 14.6073C0.936183 16.4642 0.714905 18.4201 0.878887 20.3627C1.04287 22.3053 1.58888 24.1964 2.48559 25.9275C3.38229 27.6585 4.61204 29.1955 6.10423 30.4501C7.59643 31.7046 9.32171 32.6522 11.181 33.2383C13.0404 33.8244 14.9972 34.0376 16.9391 33.8655C18.881 33.6935 20.7698 33.1396 22.4971 32.2357C22.6422 32.1597 22.7514 32.0294 22.8008 31.8733C22.8502 31.7172 22.8358 31.5478 22.7608 31.4022L16.2194 18.7715ZM23.8495 30.645L23.899 30.7441C23.9738 30.8902 24.1027 31.0013 24.2582 31.0538C24.322 31.0749 24.3894 31.0834 24.4564 31.0786C24.5544 31.0758 24.651 31.0548 24.7413 31.0166C24.9668 30.9049 25.1859 30.7808 25.3978 30.645C26.0278 30.2795 26.6283 29.8654 27.1938 29.4064H23.2054L23.8495 30.645ZM22.5613 28.1678H28.5439C28.9286 27.7813 29.2846 27.3673 29.6092 26.9291H21.9172L22.5613 28.1678ZM21.2855 25.6905H30.4886C30.7423 25.2928 30.9699 24.8791 31.1698 24.4518H20.6414L21.2855 25.6905ZM19.9973 23.2132H31.7148C31.8792 22.8089 32.0198 22.3953 32.136 21.9745H19.3532L19.9973 23.2132ZM18.7091 20.7359H32.4456C32.52 20.3272 32.5819 19.9184 32.6191 19.4973H18.0774L18.7091 20.7359ZM25.3482 5.07948C25.2787 5.03625 25.2008 5.00837 25.1196 4.99768C25.0384 4.987 24.9559 4.99378 24.8776 5.01755C24.7973 5.03588 24.7218 5.07066 24.6557 5.1197C24.5896 5.16874 24.5344 5.23096 24.4936 5.30244L24.1591 5.87222H26.5497C26.1637 5.58668 25.7626 5.32205 25.3482 5.07948ZM28.0485 7.11086H23.4407L22.7223 8.3495H29.2252C28.8587 7.91289 28.4657 7.49922 28.0485 7.11086ZM30.1542 9.58814H21.9915L21.2731 10.8268H30.9097C30.6862 10.3973 30.4338 9.98341 30.1542 9.58814ZM31.5043 12.0654H20.5547L19.8363 13.3041H31.9874C31.8501 12.8823 31.6888 12.4688 31.5043 12.0654ZM32.3342 14.5427H19.1055L18.3871 15.7813H32.5571C32.5079 15.3643 32.4335 14.9507 32.3342 14.5427ZM32.681 17.02H17.6687L17.3714 17.5278C17.3177 17.6173 17.2883 17.7192 17.2862 17.8235C17.284 17.9277 17.3091 18.0308 17.359 18.1224L17.4333 18.2586H32.7058C32.7181 18.1348 32.7181 17.9985 32.7181 17.8746C32.7181 17.5898 32.7058 17.3049 32.681 17.02Z" fill="#0A2640"/>
<path d="M9.25769 5.33005C9.03065 4.89983 8.49627 4.73303 8.07944 4.98381C4.77956 6.96918 2.31417 10.1051 1.17076 13.8039C-0.0596078 17.7841 0.341518 22.09 2.2859 25.7743C4.23028 29.4587 7.55863 32.2198 11.5388 33.4502C15.2376 34.5936 19.2178 34.328 22.719 32.7241C23.1612 32.5216 23.3251 31.9863 23.0981 31.556L16.1779 18.443L9.25769 5.33005Z" fill="#0A2640"/>
</g>
<path d="M54.8185 6.41002C56.5399 6.41002 58.0063 6.6863 59.2177 7.23887C60.4291 7.79143 61.3536 8.5884 61.9912 9.62978C62.6288 10.6711 62.9475 11.9357 62.9475 13.4234C62.9475 14.911 62.6288 16.1756 61.9912 17.2169C61.3536 18.2583 60.4291 19.0553 59.2177 19.6078C58.0063 20.1604 56.5399 20.4367 54.8185 20.4367H50.6423V27.45H45.1592V6.41002H54.8185ZM53.9577 16.3243C55.1054 16.3243 55.9661 16.0905 56.5399 15.623C57.135 15.1342 57.4325 14.401 57.4325 13.4234C57.4325 12.4457 57.135 11.7231 56.5399 11.2556C55.9661 10.7668 55.1054 10.5224 53.9577 10.5224H50.6423V16.3243H53.9577ZM66.0707 27.45V11.5106H70.8525L71.0756 14.9535C71.4794 13.7634 72.0745 12.8389 72.8608 12.1801C73.6684 11.5212 74.6886 11.1918 75.9212 11.1918C76.325 11.1918 76.665 11.2237 76.9413 11.2875C77.2389 11.3512 77.4726 11.4362 77.6427 11.5425L77.1007 16.0055C76.8882 15.9205 76.6119 15.8568 76.2719 15.8143C75.9531 15.7505 75.5599 15.7186 75.0924 15.7186C74.4548 15.7186 73.8597 15.8568 73.3071 16.133C72.7546 16.4093 72.3083 16.8238 71.9682 17.3763C71.6494 17.9076 71.4901 18.5877 71.4901 19.4166V27.45H66.0707ZM87.3602 27.7688C85.5962 27.7688 84.0661 27.4394 82.7697 26.7806C81.4945 26.1217 80.5063 25.176 79.8049 23.9433C79.1036 22.7107 78.7529 21.223 78.7529 19.4803C78.7529 17.7376 79.1036 16.2499 79.8049 15.0173C80.5063 13.7846 81.4839 12.8389 82.7378 12.1801C84.0129 11.5212 85.4687 11.1918 87.1052 11.1918C88.7841 11.1918 90.208 11.5212 91.3769 12.1801C92.5671 12.8177 93.4703 13.7103 94.0866 14.8579C94.7029 15.9843 95.0111 17.2807 95.0111 18.7471C95.0111 19.1297 95.0005 19.5122 94.9792 19.8947C94.958 20.2773 94.9261 20.5961 94.8836 20.8511H82.2596V17.9501H92.4927L89.9105 18.9384C89.9105 17.6632 89.6767 16.6856 89.2092 16.0055C88.7629 15.3255 88.0615 14.9854 87.1052 14.9854C86.4251 14.9854 85.8406 15.1448 85.3518 15.4636C84.8843 15.7824 84.523 16.2818 84.268 16.9619C84.0342 17.642 83.9173 18.5133 83.9173 19.576C83.9173 20.6173 84.0554 21.4674 84.3317 22.1263C84.608 22.7638 85.0012 23.2314 85.5112 23.5289C86.0213 23.8052 86.6376 23.9433 87.3602 23.9433C88.1678 23.9433 88.8054 23.784 89.2729 23.4652C89.7617 23.1464 90.123 22.7001 90.3568 22.1263L94.6923 23.5608C94.3948 24.4747 93.8741 25.2504 93.1303 25.888C92.4077 26.5043 91.5363 26.9718 90.5162 27.2906C89.5173 27.6094 88.4653 27.7688 87.3602 27.7688ZM104.737 27.7688C103.143 27.7688 101.656 27.5138 100.274 27.0037C98.9142 26.4724 97.7878 25.7179 96.8952 24.7403L99.4455 21.7437C99.9768 22.4238 100.678 22.9976 101.549 23.4652C102.442 23.9115 103.43 24.1346 104.514 24.1346C105.173 24.1346 105.715 24.039 106.14 23.8477C106.565 23.6564 106.778 23.3589 106.778 22.9551C106.778 22.6576 106.671 22.4238 106.459 22.2538C106.246 22.0625 105.821 21.9031 105.184 21.7756L102.952 21.3293C100.954 20.9255 99.5305 20.3304 98.6804 19.5441C97.8516 18.7365 97.4371 17.6845 97.4371 16.3881C97.4371 15.5167 97.7028 14.6879 98.2341 13.9015C98.7654 13.0939 99.5836 12.4457 100.689 11.9569C101.794 11.4469 103.207 11.1918 104.929 11.1918C106.544 11.1918 107.968 11.4256 109.2 11.8932C110.433 12.3607 111.411 13.0408 112.133 13.9334L109.551 16.8663C109.041 16.2287 108.382 15.7292 107.575 15.368C106.767 15.0067 105.959 14.826 105.152 14.826C104.642 14.826 104.206 14.8791 103.845 14.9854C103.505 15.0704 103.25 15.1979 103.08 15.368C102.91 15.538 102.825 15.7505 102.825 16.0055C102.825 16.2818 102.952 16.5262 103.207 16.7387C103.483 16.93 103.983 17.1 104.705 17.2488L107.606 17.8226C109.243 18.1202 110.422 18.6621 111.145 19.4484C111.868 20.2348 112.229 21.1805 112.229 22.2857C112.229 23.327 111.953 24.2621 111.4 25.091C110.847 25.9198 110.019 26.5787 108.913 27.0675C107.808 27.535 106.416 27.7688 104.737 27.7688ZM121.703 6.4419V21.7756C121.703 22.5407 121.884 23.0932 122.245 23.4333C122.628 23.7521 123.149 23.9115 123.807 23.9115C124.317 23.9115 124.753 23.8583 125.114 23.7521C125.497 23.6246 125.837 23.4439 126.135 23.2101L126.708 26.5574C126.177 26.94 125.508 27.2375 124.7 27.45C123.892 27.6625 123.064 27.7688 122.213 27.7688C121.002 27.7688 119.95 27.5988 119.057 27.2587C118.186 26.9187 117.506 26.3768 117.017 25.6329C116.55 24.8891 116.305 23.9008 116.284 22.6682V7.9402L121.703 6.4419ZM126.453 11.5106V15.368H113.542V11.5106H126.453ZM136.544 11.1918C138.223 11.1918 139.689 11.5212 140.943 12.1801C142.218 12.8177 143.206 13.7634 143.908 15.0173C144.63 16.2499 144.992 17.7376 144.992 19.4803C144.992 21.223 144.63 22.7213 143.908 23.9752C143.206 25.2079 142.218 26.1536 140.943 26.8124C139.689 27.45 138.223 27.7688 136.544 27.7688C134.907 27.7688 133.451 27.45 132.176 26.8124C130.901 26.1536 129.902 25.2079 129.18 23.9752C128.478 22.7213 128.128 21.223 128.128 19.4803C128.128 17.7376 128.478 16.2499 129.18 15.0173C129.902 13.7634 130.901 12.8177 132.176 12.1801C133.451 11.5212 134.907 11.1918 136.544 11.1918ZM136.544 15.0492C135.927 15.0492 135.396 15.1979 134.95 15.4955C134.503 15.793 134.163 16.2712 133.93 16.93C133.696 17.5888 133.579 18.4389 133.579 19.4803C133.579 20.5217 133.696 21.3718 133.93 22.0306C134.163 22.6682 134.503 23.1464 134.95 23.4652C135.396 23.7627 135.927 23.9115 136.544 23.9115C137.181 23.9115 137.723 23.7627 138.169 23.4652C138.616 23.1464 138.956 22.6682 139.19 22.0306C139.423 21.3718 139.54 20.5217 139.54 19.4803C139.54 18.4389 139.423 17.5888 139.19 16.93C138.956 16.2712 138.616 15.793 138.169 15.4955C137.723 15.1979 137.181 15.0492 136.544 15.0492Z" fill="#0A2640"/>
</g>
<defs>
<clipPath id="clip0_604_1548">
<rect width="146.382" height="42" fill="white" transform="translate(0.382324 -4.54999)"/>
</clipPath>
<clipPath id="clip1_604_1548">
<rect width="32.745" height="34.8351" fill="white" transform="translate(0.191162 -0.396179)"/>
</clipPath>
</defs>
</svg>
